# Blender v3.0.1 OBJ File: 'FabConvert.com_my_palm.blend'
# www.blender.org
o imagetostl_mesh
v 0.948025 0.000000 -1.196741
v -0.426277 0.000000 -1.196741
v -1.113428 0.000000 -0.006561
v -0.426277 -0.000000 1.183619
v 0.948025 -0.000000 1.183619
v 1.635177 0.000000 -0.006561
v 0.927844 4.467353 -0.742434
v 1.059679 8.475551 -0.618994
v 0.971756 12.860747 -0.567262
v 0.429386 17.553925 -0.579394
v -0.597565 22.473457 -0.605242
v -2.172749 27.571215 -0.515165
v 0.063667 4.506222 -0.742370
v 0.321678 8.497334 -0.618977
v 0.327598 12.795907 -0.567215
v -0.116631 17.452503 -0.579049
v -1.052189 22.388065 -0.604566
v -2.456194 27.473999 -0.514537
v -0.368477 4.524555 0.007761
v -0.047371 8.507280 0.020783
v 0.005394 12.765050 -0.006513
v -0.390345 17.405895 -0.097304
v -1.280032 22.349123 -0.201727
v -2.597947 27.426590 -0.252046
v 0.063556 4.504019 0.757828
v 0.321581 8.495440 0.660527
v 0.327348 12.799034 0.554141
v -0.118042 17.460711 0.384095
v -1.053252 22.395576 0.200437
v -2.456258 27.476400 0.009818
v 0.927733 4.465151 0.757764
v 1.059582 8.473657 0.660510
v 0.971507 12.863874 0.554094
v 0.427975 17.562130 0.383749
v -0.598628 22.480968 0.199761
v -2.172813 27.573616 0.009189
v 1.359877 4.446818 0.007633
v 1.428631 8.463710 0.020749
v 1.293711 12.894730 -0.006608
v 0.701689 17.608736 -0.097995
v -0.370784 22.519907 -0.203079
v -2.031060 27.621025 -0.253302
v -2.227342 27.730381 -0.515900
v -2.281935 27.889549 -0.516635
v -2.310421 28.115602 -0.468843
v -2.389530 28.312469 -0.445833
v -2.510787 27.633167 -0.515272
v -2.565380 27.792334 -0.516007
v -2.586004 28.023392 -0.528602
v -2.621541 28.229578 -0.514522
v -2.652539 27.585758 -0.252781
v -2.707133 27.744926 -0.253515
v -2.780967 27.983501 -0.305354
v -2.801591 28.189213 -0.334446
v -2.510851 27.635567 0.009083
v -2.565444 27.794735 0.008348
v -2.700349 28.035818 -0.022346
v -2.749633 28.231737 -0.085681
v -2.227406 27.732780 0.008455
v -2.281999 27.891947 0.007720
v -2.424767 28.128027 0.037414
v -2.517622 28.314625 -0.016992
v -2.085652 27.780191 -0.254037
v -2.140245 27.939358 -0.254772
v -2.229803 28.167919 -0.185834
v -2.337570 28.354992 -0.197068
v -1.906663 27.779028 -1.440568
v -2.721076 27.477085 -1.455575
v -3.471314 27.225285 -0.345403
v -3.107955 27.372963 0.596726
v -1.741309 27.833494 0.802734
v -1.227001 27.982775 -0.082523
v -1.251012 27.980228 -3.335388
v -3.181546 27.444569 -2.892516
v -4.789302 26.368031 0.029577
v -4.170962 26.839230 1.795396
v -0.104209 27.874773 2.497732
v 0.990349 28.115995 0.532735
v -1.112241 27.376097 -5.166763
v -2.598798 26.579855 -5.041991
v -5.774074 25.141487 0.633161
v -5.206818 25.418806 2.326961
v 1.523941 27.338888 2.974531
v 2.384020 27.568266 1.600306
v -1.352829 25.297836 -6.335756
v -5.668758 22.722466 2.222511
v 3.142355 25.929466 2.643025
v -4.639947 26.886684 -2.381880
v -5.522656 26.591471 -0.747324
v -3.314309 27.784809 1.972953
v -1.626965 28.375395 1.993262
v -0.026438 28.722065 -0.919315
v -1.155695 28.411896 -2.389779
v -5.806694 25.704033 -3.361777
v -6.771079 25.115463 -1.481273
v -3.289485 27.234880 4.128559
v -1.301559 27.916691 4.124153
v 1.727026 28.885950 -2.365068
v 0.261877 28.483526 -3.801769
v -6.986851 22.888571 -3.172516
v -1.571503 25.718231 5.581419
v 2.393305 27.697300 -4.498020
v -2.383048 28.548473 -1.845193
v -3.474196 28.176670 -1.625728
v -4.032809 27.992062 0.200898
v -3.308390 28.246141 1.099881
v -1.528027 28.853445 0.689986
v -1.162637 28.975067 -0.428480
v -2.669975 28.806458 -3.677743
v -3.996102 28.354584 -3.411016
v -6.142471 27.519905 1.082764
v -4.408652 28.241886 2.701976
v -0.049878 29.728745 1.435887
v 0.394197 29.876562 0.076558
v -3.159185 28.233353 -5.346855
v -3.980863 27.953367 -5.181590
v 1.748887 29.949341 1.702197
v 2.024040 30.040928 0.859946
v -3.740829 27.806999 -6.222141
v -6.424730 26.465952 3.373373
v 2.861588 30.107428 1.536786
v -1.961577 29.673229 -1.197302
v -2.866054 29.336336 -1.622169
v -3.362425 28.744047 -2.047667
v -4.299791 28.563595 -1.054161
v -4.069003 29.090021 -0.720471
v -4.010537 29.246202 0.284116
v -3.847628 28.715944 1.081400
v -2.484774 29.180777 1.466603
v -2.949417 29.815973 0.797019
v -2.039489 30.003633 0.124757
v -1.274006 29.537380 -0.085467
v -1.406145 29.434137 -1.452058
v -4.479957 28.797190 -3.781826
v -5.843053 28.774035 -2.113592
v -4.958182 28.899431 3.400562
v -2.791614 29.638390 4.012931
v 0.551719 30.628139 0.066455
v -0.161807 30.357460 -2.089465
v -5.717647 28.243080 -4.768321
v -6.870965 28.274910 -3.628063
v 2.069392 30.530436 -0.565162
v 1.729077 30.353283 -2.511049
v -7.215125 27.215288 -5.179255
v -4.380668 28.258877 6.030324
v 3.486258 29.703421 -1.680683
v -0.734837 30.645061 -3.179707
v -2.591225 30.015032 -3.974261
v -5.965474 29.472734 -1.142319
v -5.856135 29.764812 0.736385
v -2.789404 31.063686 2.291149
v -0.969938 31.414631 1.010377
v -0.889056 29.742195 -5.130816
v -8.155240 29.071066 0.322951
v -0.719231 31.324444 3.878902
vt 0.008833 0.000029
vt 0.007833 0.008424
vt 0.009809 0.008406
vt 0.009448 0.011538
vt 0.009009 0.012594
vt 0.008137 0.011912
vt 0.004885 0.976389
vt 0.004937 0.948405
vt 0.001141 0.979189
vt 0.004996 0.948083
vt 0.005385 0.890495
vt 0.005367 0.890269
vt 0.005714 0.799399
vt 0.005775 0.799812
vt 0.006246 0.660056
vt 0.006163 0.660507
vt 0.009165 0.020067
vt 0.007073 0.441617
vt 0.009366 0.021628
vt 0.007285 0.439576
vt 0.008853 0.979370
vt 0.004738 0.949001
vt 0.005243 0.890083
vt 0.005561 0.800427
vt 0.006117 0.660732
vt 0.007039 0.438582
vt 0.008817 0.022609
vt 0.009809 0.987929
vt 0.004848 0.949036
vt 0.005120 0.890315
vt 0.005422 0.800292
vt 0.006093 0.660839
vt 0.006859 0.439661
vt 0.008239 0.021774
vt 0.004811 0.999971
vt 0.005358 0.949098
vt 0.005144 0.890587
vt 0.005585 0.799723
vt 0.006256 0.660511
vt 0.007057 0.441584
vt 0.008282 0.020439
vt 0.000029 0.987307
vt 0.005204 0.948607
vt 0.005261 0.890813
vt 0.005621 0.799279
vt 0.006208 0.660042
vt 0.007091 0.442440
vt 0.008673 0.019689
vt 0.009063 0.018770
vt 0.008938 0.017473
vt 0.008874 0.016128
vt 0.008744 0.014694
vt 0.008482 0.013722
vt 0.008205 0.011663
vt 0.008843 0.019383
vt 0.008890 0.016570
vt 0.008966 0.014141
vt 0.008557 0.018667
vt 0.008791 0.015732
vt 0.009302 0.013148
vt 0.008522 0.017414
vt 0.008707 0.014199
vt 0.009408 0.011076
vt 0.008689 0.016758
vt 0.008679 0.013400
vt 0.008600 0.008807
vt 0.042996 0.044505
vt 0.046043 0.044826
vt 0.043722 0.047903
vt 0.044771 0.048031
vt 0.010292 0.047843
vt 0.013878 0.048151
vt 0.011550 0.050761
vt 0.012591 0.050987
vt 0.034926 0.000213
vt 0.035975 0.000029
vt 0.034453 0.003345
vt 0.038031 0.002630
vt 0.041381 0.037583
vt 0.048215 0.039966
vt 0.009867 0.042158
vt 0.016635 0.042871
vt 0.033930 0.011458
vt 0.041783 0.010048
vt 0.048215 0.031539
vt 0.042293 0.030825
vt 0.016635 0.036393
vt 0.010261 0.036228
vt 0.036141 0.017556
vt 0.041783 0.016323
vt 0.047057 0.023842
vt 0.014561 0.026962
vt 0.040053 0.023784
vt 0.014681 0.026806
vt 0.013620 0.026904
vt 0.017514 0.016328
vt 0.010908 0.016938
vt 0.039333 0.023921
vt 0.041323 0.031155
vt 0.038279 0.023842
vt 0.035029 0.030775
vt 0.021653 0.024665
vt 0.024897 0.032332
vt 0.020603 0.024843
vt 0.018268 0.032478
vt 0.017514 0.009034
vt 0.009867 0.010215
vt 0.041323 0.039002
vt 0.033930 0.038471
vt 0.024897 0.040369
vt 0.017572 0.039505
vt 0.013420 0.000029
vt 0.036724 0.047395
vt 0.019683 0.047615
vt 0.061052 0.000029
vt 0.061896 0.005203
vt 0.059998 0.000114
vt 0.057772 0.004855
vt 0.056144 0.023998
vt 0.056070 0.029016
vt 0.055091 0.023842
vt 0.052098 0.027749
vt 0.052636 0.043198
vt 0.053325 0.048085
vt 0.051574 0.043280
vt 0.049168 0.047732
vt 0.061896 0.011809
vt 0.056884 0.011385
vt 0.056144 0.037251
vt 0.048273 0.033438
vt 0.048273 0.054261
vt 0.053325 0.054691
vt 0.060221 0.018047
vt 0.057115 0.017785
vt 0.051639 0.060928
vt 0.048509 0.060662
vt 0.058120 0.021451
vt 0.049406 0.043140
vt 0.049522 0.064330
vt 0.055463 0.000029
vt 0.056320 0.000309
vt 0.053201 0.005141
vt 0.056826 0.005973
vt 0.027959 0.048634
vt 0.026937 0.048372
vt 0.030703 0.042948
vt 0.025955 0.041914
vt 0.061897 0.023842
vt 0.062757 0.024136
vt 0.059128 0.029001
vt 0.062634 0.029785
vt 0.031782 0.023500
vt 0.028720 0.018217
vt 0.032816 0.023342
vt 0.033872 0.017167
vt 0.048646 0.020451
vt 0.045286 0.015224
vt 0.049537 0.020268
vt 0.049214 0.014259
vt 0.024532 0.024523
vt 0.023481 0.024607
vt 0.025624 0.017994
vt 0.020942 0.019281
vt 0.025682 0.034640
vt 0.032994 0.036711
vt 0.033872 0.007978
vt 0.025682 0.009647
vt 0.017572 0.012558
vt 0.025624 0.012084
vt 0.032994 0.030019
vt 0.027369 0.028971
vt 0.024549 0.005336
vt 0.017698 0.006751
vt 0.031089 0.023558
vt 0.027350 0.000029
vt 0.019642 0.000029
vt 0.056826 0.014881
vt 0.049594 0.013046
vt 0.056202 0.035302
vt 0.062757 0.036769
vt 0.049537 0.007284
vt 0.041841 0.009259
vt 0.051349 0.020154
vt 0.056618 0.043887
vt 0.042422 0.000029
vn -0.3092 0.9460 -0.0971
vn 0.0000 0.1003 -0.9950
vn 0.0045 0.1012 -0.9949
vn 0.0013 0.0307 -0.9995
vn 0.0009 0.0308 -0.9995
vn 0.0003 0.0118 -0.9999
vn -0.0013 0.0120 -0.9999
vn -0.0001 -0.0026 -1.0000
vn 0.0002 -0.0025 -1.0000
vn -0.0075 0.0154 -0.9999
vn -0.0046 0.0164 -0.9999
vn -0.8572 0.1427 -0.4949
vn -0.8561 0.1432 -0.4967
vn -0.8635 0.0713 -0.4992
vn -0.8672 0.0072 -0.4979
vn -0.8661 0.0075 -0.4998
vn -0.8620 -0.0835 -0.4999
vn -0.8630 -0.0833 -0.4984
vn -0.8508 -0.1637 -0.4993
vn -0.8518 -0.1640 -0.4976
vn -0.8403 -0.2232 -0.4941
vn -0.8392 -0.2227 -0.4962
vn -0.8575 0.1396 0.4951
vn -0.8563 0.1401 0.4971
vn -0.8637 0.0680 0.4994
vn -0.8661 0.0135 0.4997
vn -0.8675 0.0139 0.4973
vn -0.8637 -0.0643 0.4999
vn -0.8655 -0.0641 0.4968
vn -0.8544 -0.1432 0.4996
vn -0.8549 -0.1434 0.4986
vn -0.8416 -0.2138 0.4960
vn -0.8403 -0.2132 0.4985
vn -0.0000 0.0941 0.9956
vn 0.0043 0.0950 0.9955
vn 0.0012 0.0242 0.9997
vn 0.0007 0.0243 0.9997
vn 0.0007 0.0242 0.9997
vn -0.0024 0.0247 0.9997
vn -0.0035 0.0358 0.9994
vn -0.0060 0.0359 0.9993
vn -0.0061 0.0360 0.9993
vn -0.0053 0.0363 0.9993
vn -0.0096 0.0344 0.9994
vn -0.0053 0.0360 0.9993
vn 0.8649 0.0516 0.4993
vn 0.8659 0.0520 0.4976
vn 0.8662 -0.0165 0.4994
vn 0.8660 -0.0164 0.4998
vn 0.8660 0.0294 0.4992
vn 0.8660 0.0295 0.4991
vn 0.8585 0.1175 0.4992
vn 0.8582 0.1174 0.4996
vn 0.8446 0.1949 0.4987
vn 0.8455 0.1953 0.4971
vn 0.8249 0.2733 0.4948
vn 0.8256 0.2737 0.4934
vn 0.8659 0.0545 -0.4973
vn 0.8647 0.0551 -0.4992
vn 0.8663 -0.0132 -0.4993
vn 0.8661 -0.0131 -0.4997
vn 0.8663 0.0233 -0.4989
vn 0.8662 0.0233 -0.4991
vn 0.8613 0.0985 -0.4984
vn 0.8604 0.0981 -0.5000
vn 0.8484 0.1745 -0.4998
vn 0.8489 0.1747 -0.4989
vn 0.8267 0.2642 -0.4967
vn 0.8264 0.2641 -0.4974
vn -0.0006 -0.0048 -1.0000
vn 0.0160 -0.0530 -0.9985
vn 0.1354 0.2212 -0.9658
vn 0.1795 0.0978 -0.9789
vn 0.2128 0.1974 -0.9570
vn -0.8213 -0.2840 -0.4948
vn -0.7950 -0.3532 -0.4931
vn -0.7401 -0.1023 -0.6646
vn -0.7276 -0.1670 -0.6653
vn -0.6973 -0.0715 -0.7132
vn -0.8213 -0.2794 0.4975
vn -0.8212 -0.2794 0.4975
vn -0.7834 -0.3753 0.4953
vn -0.9266 -0.2205 0.3047
vn -0.9447 -0.1422 0.2954
vn -0.9743 -0.0673 0.2150
vn 0.0006 0.0048 1.0000
vn 0.0373 -0.1025 0.9940
vn -0.2135 0.0049 0.9769
vn -0.2573 0.1503 0.9546
vn -0.3455 0.2089 0.9149
vn 0.8213 0.2840 0.4948
vn 0.6811 0.3297 0.6537
vn 0.8504 0.1846 0.4926
vn 0.6485 0.4120 0.6400
vn 0.5655 0.4775 0.6725
vn 0.8212 0.2794 -0.4975
vn 0.8213 0.2794 -0.4975
vn 0.8454 0.4277 -0.3199
vn 0.8423 0.2110 -0.4959
vn 0.8663 0.3853 -0.3180
vn 0.8440 0.4708 -0.2568
vn -0.3473 0.9314 0.1093
vn -0.3228 0.9418 0.0940
vn -0.2171 0.9737 -0.0689
vn -0.2161 0.9740 -0.0683
vn -0.4007 0.9148 -0.0512
vn -0.4023 0.9120 -0.0799
vn -0.2651 0.9642 0.0107
vn -0.3477 0.9333 0.0903
vn -0.5509 0.8340 -0.0296
vn -0.4275 0.9037 0.0232
vn -0.0810 0.9937 0.0769
vn -0.1232 0.9878 0.0950
vn -0.3315 0.8407 -0.4281
vn -0.4691 0.8275 -0.3085
vn -0.7828 0.6123 0.1107
vn -0.7377 0.6607 0.1389
vn 0.1997 0.9529 0.2282
vn 0.2203 0.9303 0.2932
vn -0.3309 0.4914 -0.8056
vn -0.9446 0.1505 0.2917
vn 0.6266 0.6036 0.4929
vn -0.3265 0.9452 -0.0056
vn -0.3182 0.9265 -0.2006
vn -0.3214 0.9251 -0.2023
vn -0.4036 0.9139 0.0445
vn -0.3918 0.9136 0.1082
vn -0.7155 0.6815 -0.1536
vn -0.6137 0.7655 -0.1932
vn -0.3146 0.9189 0.2380
vn -0.3228 0.9139 0.2460
vn -0.1727 0.9800 -0.0984
vn -0.1454 0.9847 -0.0960
vn -0.8749 0.3438 -0.3411
vn -0.1898 0.5585 0.8075
vn 0.1835 0.8819 -0.4342
vn -0.2900 0.8484 0.4429
vn -0.2009 0.8631 0.4634
vn 0.0988 0.9664 -0.2373
vn 0.0828 0.9396 -0.3322
vn -0.6749 0.6984 -0.2383
vn -0.7308 0.6619 -0.1668
vn -0.2853 0.9419 0.1773
vn -0.2701 0.9532 -0.1358
vn -0.1863 0.9745 -0.1253
vn -0.4846 0.8724 -0.0634
vn -0.3529 0.9119 -0.2097
vn -0.1309 0.9893 0.0648
vn -0.5802 0.7647 0.2803
vn -0.4162 0.5956 0.6870
vn -0.5142 0.5329 0.6721
vn 0.1899 0.9243 0.3310
vn 0.1854 0.9211 0.3422
vn 0.5607 0.7888 -0.2519
vn 0.6034 0.7819 -0.1567
vn -0.1278 0.7795 -0.6132
vn -0.1049 0.7986 -0.5927
vn -0.7157 0.1624 -0.6792
vn -0.6080 0.2566 -0.7513
vn -0.7803 0.6160 0.1084
vn -0.8207 0.5702 0.0363
vn 0.0115 0.9997 0.0232
vn 0.0070 0.9827 0.1851
vn -0.2647 0.9431 -0.2014
vn -0.5157 0.8544 0.0634
vn -0.5968 0.8023 -0.0029
vn -0.2206 0.9610 -0.1669
vn -0.2219 0.9423 -0.2508
vn -0.0238 0.9929 -0.1168
vn 0.0246 0.9952 -0.0949
vn -0.4198 0.7901 -0.4466
vn -0.3824 0.8749 0.2971
vn 0.4056 0.9012 -0.1530
vn -0.3903 0.8989 0.1991
vn -0.4247 0.8819 0.2048
vn 0.2298 0.9596 -0.1626
vn -0.4968 0.6992 -0.5141
vn -0.5203 0.6821 -0.5139
vn -0.1322 0.9035 -0.4077
vn -0.2643 0.9552 -0.1331
vn -0.1587 0.9863 0.0449
vn -0.0005 -0.0054 -1.0000
vn 0.0003 -0.0051 -1.0000
s off
f 66/1/1 46/2/1 62/3/1
f 62/3/1 46/2/1 58/4/1
f 58/4/1 46/2/1 54/5/1
f 46/2/1 50/6/1 54/5/1
f 2/7/2 13/8/2 1/9/2
f 1/9/3 13/8/3 7/10/3
f 7/10/4 13/8/4 8/11/4
f 13/8/5 14/12/5 8/11/5
f 8/11/6 14/12/6 9/13/6
f 14/12/7 15/14/7 9/13/7
f 10/15/8 9/13/8 16/16/8
f 9/13/9 15/14/9 16/16/9
f 12/17/10 11/18/10 18/19/10
f 11/18/11 17/20/11 18/19/11
f 3/21/12 19/22/12 2/7/12
f 2/7/13 19/22/13 13/8/13
f 13/8/14 19/22/14 14/12/14
f 19/22/14 20/23/14 14/12/14
f 15/14/15 14/12/15 21/24/15
f 14/12/16 20/23/16 21/24/16
f 15/14/17 21/24/17 16/16/17
f 21/24/18 22/25/18 16/16/18
f 22/25/19 23/26/19 16/16/19
f 16/16/20 23/26/20 17/20/20
f 18/19/21 17/20/21 24/27/21
f 17/20/22 23/26/22 24/27/22
f 3/21/23 4/28/23 19/22/23
f 4/28/24 25/29/24 19/22/24
f 25/29/25 26/30/25 19/22/25
f 19/22/25 26/30/25 20/23/25
f 26/30/26 27/31/26 20/23/26
f 20/23/27 27/31/27 21/24/27
f 27/31/28 28/32/28 21/24/28
f 21/24/29 28/32/29 22/25/29
f 22/25/30 28/32/30 23/26/30
f 28/32/31 29/33/31 23/26/31
f 30/34/32 24/27/32 29/33/32
f 23/26/33 29/33/33 24/27/33
f 4/28/34 5/35/34 25/29/34
f 5/35/35 31/36/35 25/29/35
f 31/36/36 32/37/36 25/29/36
f 25/29/37 32/37/37 26/30/37
f 32/37/38 33/38/38 26/30/38
f 26/30/39 33/38/39 27/31/39
f 33/38/40 34/39/40 27/31/40
f 27/31/41 34/39/41 28/32/41
f 28/32/42 34/39/42 29/33/42
f 34/39/43 35/40/43 29/33/43
f 36/41/44 30/34/44 35/40/44
f 29/33/45 35/40/45 30/34/45
f 5/35/46 6/42/46 31/36/46
f 6/42/47 37/43/47 31/36/47
f 37/43/48 38/44/48 31/36/48
f 31/36/49 38/44/49 32/37/49
f 39/45/50 33/38/50 38/44/50
f 32/37/51 38/44/51 33/38/51
f 40/46/52 34/39/52 39/45/52
f 33/38/53 39/45/53 34/39/53
f 34/39/54 40/46/54 35/40/54
f 40/46/55 41/47/55 35/40/55
f 42/48/56 36/41/56 41/47/56
f 35/40/57 41/47/57 36/41/57
f 7/10/58 37/43/58 1/9/58
f 6/42/59 1/9/59 37/43/59
f 37/43/60 7/10/60 38/44/60
f 7/10/61 8/11/61 38/44/61
f 39/45/62 38/44/62 9/13/62
f 38/44/63 8/11/63 9/13/63
f 40/46/64 39/45/64 10/15/64
f 39/45/65 9/13/65 10/15/65
f 10/15/66 11/18/66 40/46/66
f 40/46/67 11/18/67 41/47/67
f 41/47/68 11/18/68 42/48/68
f 11/18/69 12/17/69 42/48/69
f 18/19/70 47/49/70 12/17/70
f 12/17/70 47/49/70 43/50/70
f 47/49/70 48/51/70 43/50/70
f 43/50/70 48/51/70 44/52/70
f 48/51/71 49/53/71 44/52/71
f 44/52/72 49/53/72 45/54/72
f 49/53/73 50/6/73 45/54/73
f 45/54/74 50/6/74 46/2/74
f 24/27/75 51/55/75 18/19/75
f 18/19/75 51/55/75 47/49/75
f 51/55/75 52/56/75 47/49/75
f 47/49/75 52/56/75 48/51/75
f 52/56/76 53/57/76 48/51/76
f 48/51/77 53/57/77 49/53/77
f 53/57/78 54/5/78 49/53/78
f 49/53/79 54/5/79 50/6/79
f 24/27/80 30/34/80 51/55/80
f 30/34/81 55/58/81 51/55/81
f 55/58/81 56/59/81 51/55/81
f 51/55/81 56/59/81 52/56/81
f 56/59/82 57/60/82 52/56/82
f 52/56/83 57/60/83 53/57/83
f 57/60/84 58/4/84 53/57/84
f 53/57/85 58/4/85 54/5/85
f 30/34/86 36/41/86 55/58/86
f 36/41/86 59/61/86 55/58/86
f 59/61/86 60/62/86 55/58/86
f 55/58/86 60/62/86 56/59/86
f 60/62/87 61/63/87 56/59/87
f 56/59/88 61/63/88 57/60/88
f 61/63/89 62/3/89 57/60/89
f 57/60/90 62/3/90 58/4/90
f 36/41/91 42/48/91 59/61/91
f 42/48/91 63/64/91 59/61/91
f 63/64/91 64/65/91 59/61/91
f 59/61/91 64/65/91 60/62/91
f 61/63/92 60/62/92 65/66/92
f 60/62/93 64/65/93 65/66/93
f 65/66/94 66/1/94 61/63/94
f 61/63/95 66/1/95 62/3/95
f 12/17/96 43/50/96 42/48/96
f 42/48/96 43/50/96 63/64/96
f 43/50/97 44/52/97 63/64/97
f 63/64/96 44/52/96 64/65/96
f 65/66/98 64/65/98 45/54/98
f 64/65/99 44/52/99 45/54/99
f 45/54/100 46/2/100 65/66/100
f 65/66/101 46/2/101 66/1/101
f 67/67/102 68/68/102 12/69/102
f 12/69/103 68/68/103 18/70/103
f 69/71/104 70/72/104 24/73/104
f 24/73/105 70/72/105 30/74/105
f 42/75/106 36/76/106 72/77/106
f 36/76/107 71/78/107 72/77/107
f 73/79/108 74/80/108 67/67/108
f 67/67/109 74/80/109 68/68/109
f 75/81/110 76/82/110 69/71/110
f 69/71/111 76/82/111 70/72/111
f 78/83/112 72/77/112 77/84/112
f 71/78/113 77/84/113 72/77/113
f 74/80/114 73/79/114 80/85/114
f 73/79/115 79/86/115 80/85/115
f 76/82/116 75/81/116 82/87/116
f 75/81/117 81/88/117 82/87/117
f 78/83/118 77/84/118 84/89/118
f 77/84/119 83/90/119 84/89/119
f 79/86/120 85/91/120 80/85/120
f 81/88/121 86/92/121 82/87/121
f 83/90/122 87/93/122 84/89/122
f 51/94/123 47/95/123 89/96/123
f 47/95/123 88/97/123 89/96/123
f 55/98/124 90/99/124 59/100/124
f 59/100/125 90/99/125 91/101/125
f 63/102/126 92/103/126 43/104/126
f 43/104/127 92/103/127 93/105/127
f 95/106/128 89/96/128 94/107/128
f 88/97/129 94/107/129 89/96/129
f 96/108/130 97/109/130 90/99/130
f 90/99/131 97/109/131 91/101/131
f 98/110/132 99/111/132 92/103/132
f 92/103/133 99/111/133 93/105/133
f 95/106/134 94/107/134 100/112/134
f 97/109/135 96/108/135 101/113/135
f 99/111/136 98/110/136 102/114/136
f 44/115/137 103/116/137 48/117/137
f 48/117/138 103/116/138 104/118/138
f 52/119/139 105/120/139 56/121/139
f 56/121/140 105/120/140 106/122/140
f 60/123/141 107/124/141 64/125/141
f 64/125/142 107/124/142 108/126/142
f 109/127/143 110/128/143 103/116/143
f 103/116/143 110/128/143 104/118/143
f 111/129/144 112/130/144 105/120/144
f 105/120/145 112/130/145 106/122/145
f 114/131/146 108/126/146 113/132/146
f 107/124/146 113/132/146 108/126/146
f 109/127/147 115/133/147 110/128/147
f 110/128/147 115/133/147 116/134/147
f 113/132/148 117/135/148 114/131/148
f 114/131/148 117/135/148 118/136/148
f 115/133/147 119/137/147 116/134/147
f 112/130/149 111/129/149 120/138/149
f 117/135/148 121/139/148 118/136/148
f 50/140/150 46/141/150 123/142/150
f 46/141/151 122/143/151 123/142/151
f 53/144/152 49/145/152 125/146/152
f 49/145/153 124/147/153 125/146/153
f 58/148/154 54/149/154 127/150/154
f 54/149/155 126/151/155 127/150/155
f 57/152/156 128/153/156 61/154/156
f 61/154/157 128/153/157 129/155/157
f 62/156/158 130/157/158 66/158/158
f 66/158/159 130/157/159 131/159/159
f 45/160/160 65/161/160 133/162/160
f 65/161/161 132/163/161 133/162/161
f 134/164/162 135/165/162 124/147/162
f 124/147/163 135/165/163 125/146/163
f 137/166/164 129/155/164 136/167/164
f 128/153/164 136/167/164 129/155/164
f 138/168/165 139/169/165 132/163/165
f 132/163/166 139/169/166 133/162/166
f 135/165/167 134/164/167 141/170/167
f 134/164/168 140/171/168 141/170/168
f 139/169/169 138/168/169 143/172/169
f 138/168/170 142/173/170 143/172/170
f 140/171/171 144/174/171 141/170/171
f 137/166/172 136/167/172 145/175/172
f 142/173/173 146/176/173 143/172/173
f 147/177/174 148/178/174 122/143/174
f 122/143/175 148/178/175 123/142/175
f 150/179/176 127/150/176 149/180/176
f 126/151/176 149/180/176 127/150/176
f 152/181/177 131/159/177 151/182/177
f 130/157/178 151/182/178 131/159/178
f 147/177/179 153/183/179 148/178/179
f 149/180/180 154/184/180 150/179/180
f 151/182/181 155/185/181 152/181/181
f 11/18/182 10/15/182 17/20/182
f 10/15/183 16/16/183 17/20/183
